# xmcd
#
# Track frame offsets:
#	150
#	16830
#	37520
#	52621
#	64026
#	78573
#	92027
#	107414
#	124058
#	139034
#	152984
#	168034
#	170276
#
# Disc length: 2528 seconds
# Revision: 5
# Processed by: cddbd v1.5.2PL0 Copyright (c) Steve Scherf et al.
# Submitted via: dBpowerAMP V12.0
#
DISCID=8b09de0d
DTITLE=Pat Green - George's Bar
DYEAR=2001
DGENRE=Country
TTITLE0=Songs About Texas
TTITLE1=George's Bar
TTITLE2=Snowing On Raton
TTITLE3=Going Away
TTITLE4=The Ballad Of Arkansas Dave Rudebaugh
TTITLE5=1-900 Lover
TTITLE6=John Wayne And Jesus
TTITLE7=Just Fine
TTITLE8=Trailer Park Tune
TTITLE9=Adios Days
TTITLE10=If I Had A Million
TTITLE11=(Silence)
TTITLE12=Songs About Texas
EXTD=
EXTT0=
EXTT1=
EXTT2=
EXTT3=
EXTT4=
EXTT5=
EXTT6=
EXTT7=
EXTT8=
EXTT9=
EXTT10=
EXTT11=
EXTT12=
PLAYORDER=
